# xmcd CD database file
#
# Track frame offsets:
#	150
#	13085
#	27162
#	40391
#	55301
#	70809
#	81736
#	94591
#	108337
#	119754
#	132211
#	144907
#	159727
#	172970
#	186117
#	201274
#	214687
#	227119
#	240372
#	251585
#	263525
#	277565
#
# Disc length: 3872 seconds
#
# Revision: 0
# Processed by: cddbd v1.5.2PL0 Copyright (c) Steve Scherf et al.
# Submitted via: CDex 1.70beta2
#
DISCID=310f1e16
DTITLE=STAN GETZ - STAN GETZ LES GRANDS STANDARDS DU SAXOPHONE CD2
DYEAR=2005
DGENRE=Jazz
TTITLE0=DEAR OLD STOCKHOLM 1951
TTITLE1=NIGHT AND DAY 1951
TTITLE2=S'WONDERFUL 1950
TTITLE3=I'VE GOT YOU UNDER MY SKIN 1950
TTITLE4=I ONLY HAVE EYES FOR YOU 1951
TTITLE5=IMAGINATION 1950
TTITLE6=THE SONG IS YOU 1951
TTITLE7=YOU GO TO MY HEAD 1950
TTITLE8=STRIKE UP THE BAND 1950
TTITLE9=MY OLD FLAME 1950
TTITLE10=YESTERDAYS 1950
TTITLE11=THE LADY IN RED 1950
TTITLE12=THER'S A SMALL HOTEL 1950
TTITLE13=IT MIGHT AS WELL BE SPRING 1951
TTITLE14=WHAT'S NEW 1950
TTITLE15=TOO MARVELOUS FOR WORDS 1950
TTITLE16=THE BEST THING FOR YOU 1951
TTITLE17=YOU STEPPED UOT OF A DREAM 1950
TTITLE18=OUT OF NOWHERE 1950
TTITLE19=HERSHEY BAR 1950
TTITLE20=WILDWOOD 1951
TTITLE21=PRELUDE TO A KISS 1951
EXTD=YEAR: 2005
EXTT0=
EXTT1=
EXTT2=
EXTT3=
EXTT4=
EXTT5=
EXTT6=
EXTT7=
EXTT8=
EXTT9=
EXTT10=
EXTT11=
EXTT12=
EXTT13=
EXTT14=
EXTT15=
EXTT16=
EXTT17=
EXTT18=
EXTT19=
EXTT20=
EXTT21=
PLAYORDER=
